<?xml version="1.0" encoding="utf-8"?>
<!-- Generator: Adobe Illustrator 21.1.0, SVG Export Plug-In . SVG Version: 6.00 Build 0)  -->
<svg version="1.1" id="Layer_3" xmlns="http://www.w3.org/2000/svg" xmlns:xlink="http://www.w3.org/1999/xlink" x="0px" y="0px"
	 viewBox="0 0 480 160" style="enable-background:new 0 0 480 160;" xml:space="preserve">
<style type="text/css">
	.st0{fill:#000000;}
	.st1{fill:#06BD85;}
</style>
<g>
	<path class="st0" d="M87.1,67.1H73v7.7h13.4v10.1H73v8h14.2v10.1H61V56.8h26.1V67.1z"/>
	<path class="st0" d="M106.6,56.8l8,29.8l9.8-29.8h9.5l9.8,29.8l8-29.8H164L150.3,103h-12.4l-9-26.8l-9,26.8h-12.2L94.1,56.8H106.6z
		"/>
	<path class="st0" d="M202.2,72.2c-2.7-3.3-6.1-5.1-10.2-5.1c-1.8,0-3.4,0.3-4.9,1c-1.5,0.6-2.8,1.5-3.9,2.6
		c-1.1,1.1-1.9,2.4-2.6,4.1c-0.6,1.5-0.9,3.2-0.9,5.1s0.3,3.5,0.9,5.1c0.6,1.5,1.5,2.9,2.6,4.1c1.1,1.1,2.4,2,3.9,2.7
		c1.5,0.6,3.1,1,4.8,1c3.8,0,7.2-1.6,10.3-4.9v14.2l-1.2,0.4c-1.8,0.6-3.5,1.1-5.1,1.4c-1.6,0.3-3.1,0.5-4.7,0.5
		c-3.1,0-6.2-0.6-9.1-1.8c-2.9-1.2-5.4-2.9-7.7-5.1c-2.2-2.2-4-4.8-5.3-7.8c-1.3-3-2-6.3-2-9.8s0.7-6.8,2-9.7s3.1-5.5,5.3-7.6
		c2.2-2.1,4.7-3.9,7.7-5.1c2.9-1.2,5.9-1.8,9.2-1.8c1.8,0,3.6,0.2,5.3,0.6c1.7,0.4,3.6,1,5.5,1.8L202.2,72.2L202.2,72.2z"/>
	<path class="st0" d="M376.8,103.1l7.8-46.1h11.8l9.2,24.6l9.2-24.6h11.8l7.8,46.1h-11.9l-3.9-26.5l-10.7,26.5H403l-10.4-26.5
		l-3.9,26.5H376.8z"/>
	<path class="st0" d="M451.3,80.9l-16.7-24h14.2l8.6,12.6l8.5-12.6H480l-16.8,24v22.2h-11.9V80.9z"/>
	<g>
		<path class="st0" d="M0,103.9v-47h12.2l22.4,28.8V56.8h12.1v47H34.6L12.2,75.2V104L0,103.9L0,103.9z"/>
	</g>
	<g>
		<path class="st0" d="M266.7,103.1V56.9h11.9l22,28.2V56.9h11.9v46.1h-11.9l-22-28.2v28.2H266.7z"/>
	</g>
	<g>
		<path class="st1" d="M208.4,80.1c0-3.4,0.6-6.6,1.9-9.6c1.2-2.9,3-5.6,5.2-7.7c2.2-2.2,4.9-4,8-5.2c3.1-1.2,6.5-1.8,10.3-1.8
			s7,0.6,10.2,1.8c3.1,1.2,5.8,2.9,8.1,5.2c2.2,2.2,4,4.8,5.2,7.7c1.2,2.9,1.9,6.2,1.9,9.6s-0.6,6.6-1.9,9.6c-1.2,2.9-3,5.6-5.2,7.7
			c-2.2,2.2-4.9,4-8.1,5.2c-3.1,1.2-6.5,1.8-10.2,1.8c-3.7,0-7.1-0.6-10.3-1.8c-3.1-1.2-5.7-2.9-8-5.2s-3.9-4.8-5.2-7.7
			C209,86.6,208.4,83.4,208.4,80.1z M220.9,80.1c0,1.8,0.3,3.5,1,5.1s1.6,2.9,2.8,4.1c1.2,1.1,2.5,2,4.1,2.6
			c1.5,0.6,3.2,0.9,4.9,0.9s3.4-0.3,4.9-0.9c1.6-0.6,2.9-1.5,4.1-2.6c1.2-1.1,2.1-2.5,2.8-4.1s1-3.2,1-5.1s-0.3-3.5-1-5.1
			s-1.6-2.9-2.8-4.1c-1.2-1.1-2.6-2-4.1-2.6c-1.6-0.6-3.2-0.9-4.9-0.9s-3.4,0.3-4.9,0.9c-1.6,0.6-2.9,1.5-4.1,2.6
			c-1.2,1.1-2.1,2.5-2.8,4.1S220.9,78.1,220.9,80.1z"/>
		<path class="st1" d="M315.3,24.3c0,3.4-0.6,6.6-1.9,9.6c-1.2,2.9-3,5.6-5.2,7.7c-2.2,2.2-4.9,4-8,5.2c-3.1,1.2-6.5,1.8-10.3,1.8
			s-7-0.6-10.2-1.8s-5.8-2.9-8.1-5.2c-2.2-2.2-4-4.8-5.2-7.7s-1.9-6.2-1.9-9.6s0.6-6.6,1.9-9.6c1.2-2.9,3-5.6,5.2-7.7
			c2.2-2.2,4.9-4,8.1-5.2c3-1.2,6.4-1.8,10.2-1.8s7.1,0.6,10.3,1.8s5.7,2.9,8,5.2s3.9,4.8,5.2,7.7C314.7,17.7,315.3,21,315.3,24.3z
			 M302.8,24.3c0-1.8-0.3-3.5-1-5.1c-0.7-1.5-1.6-2.9-2.8-4.1c-1.2-1.1-2.5-2-4.1-2.6c-1.5-0.6-3.2-0.9-4.9-0.9
			c-1.7,0-3.4,0.3-4.9,0.9c-1.6,0.6-2.9,1.5-4.1,2.6s-2.1,2.5-2.8,4.1c-0.7,1.5-1,3.2-1,5.1s0.3,3.5,1,5.1s1.6,2.9,2.8,4.1
			c1.2,1.1,2.6,2,4.1,2.6c1.6,0.6,3.2,0.9,4.9,0.9c1.7,0,3.4-0.3,4.9-0.9c1.6-0.6,2.9-1.5,4.1-2.6c1.2-1.1,2.1-2.5,2.8-4.1
			C302.5,27.9,302.8,26.2,302.8,24.3z"/>
		<path class="st1" d="M315.3,135.7c0,3.4-0.6,6.6-1.9,9.6c-1.2,2.9-3,5.6-5.2,7.7c-2.2,2.2-4.9,4-8,5.2c-3.1,1.2-6.5,1.8-10.3,1.8
			s-7-0.6-10.2-1.8s-5.8-2.9-8.1-5.2c-2.2-2.2-4-4.8-5.2-7.7s-1.9-6.2-1.9-9.6c0-3.4,0.6-6.6,1.9-9.6c1.2-2.9,3-5.6,5.2-7.7
			c2.2-2.2,4.9-4,8.1-5.2c3.1-1.2,6.5-1.8,10.2-1.8c3.7,0,7.1,0.6,10.3,1.8c3.1,1.2,5.7,2.9,8,5.2s3.9,4.8,5.2,7.7
			C314.7,129,315.3,132.2,315.3,135.7z M302.8,135.7c0-1.8-0.3-3.5-1-5.1c-0.7-1.5-1.6-2.9-2.8-4.1c-1.2-1.1-2.5-2-4.1-2.6
			c-1.5-0.6-3.2-0.9-4.9-0.9c-1.7,0-3.4,0.3-4.9,0.9c-1.6,0.6-2.9,1.5-4.1,2.6c-1.2,1.1-2.1,2.5-2.8,4.1c-0.7,1.5-1,3.2-1,5.1
			s0.3,3.5,1,5.1c0.7,1.5,1.6,2.9,2.8,4.1c1.2,1.1,2.6,2,4.1,2.6c1.6,0.6,3.2,0.9,4.9,0.9c1.7,0,3.4-0.3,4.9-0.9
			c1.6-0.6,2.9-1.5,4.1-2.6s2.1-2.5,2.8-4.1C302.5,139.1,302.8,137.5,302.8,135.7z"/>
		<path class="st1" d="M320.6,80.1c0-3.4,0.6-6.6,1.9-9.6c1.2-2.9,3-5.6,5.2-7.7c2.2-2.2,4.9-4,8-5.2c3.1-1.2,6.5-1.8,10.3-1.8
			c3.7,0,7,0.6,10.2,1.8c3.1,1.2,5.8,2.9,8.1,5.2c2.2,2.2,4,4.8,5.2,7.7s1.9,6.2,1.9,9.6s-0.6,6.6-1.9,9.6c-1.2,2.9-3,5.6-5.2,7.7
			c-2.2,2.2-4.9,4-8.1,5.2s-6.5,1.8-10.2,1.8c-3.7,0-7.1-0.6-10.3-1.8c-3.1-1.2-5.7-2.9-8-5.2c-2.2-2.2-3.9-4.8-5.2-7.7
			C321.2,86.6,320.6,83.4,320.6,80.1z M333,80.1c0,1.8,0.3,3.5,1,5.1s1.6,2.9,2.8,4.1c1.2,1.1,2.5,2,4.1,2.6
			c1.5,0.6,3.2,0.9,4.9,0.9s3.4-0.3,4.9-0.9c1.6-0.6,2.9-1.5,4.1-2.6c1.2-1.1,2.1-2.5,2.8-4.1c0.7-1.5,1-3.2,1-5.1s-0.3-3.5-1-5.1
			s-1.6-2.9-2.8-4.1c-1.2-1.1-2.6-2-4.1-2.6c-1.6-0.6-3.2-0.9-4.9-0.9c-1.7,0-3.4,0.3-4.9,0.9c-1.6,0.6-2.9,1.5-4.1,2.6
			c-1.2,1.1-2.1,2.5-2.8,4.1C333.4,76.5,333,78.1,333,80.1z"/>
		<path class="st1" d="M277,29.1c-19.2,4.6-34.3,19.4-39.2,38.1c-1.3-0.4-2.7-0.6-4.1-0.6c-0.7,0-1.3,0.1-2,0.1
			C236.9,45,254.3,28,276.2,23c0,0.4-0.1,0.9-0.1,1.3C276.2,26,276.5,27.7,277,29.1z M303.5,23.2c0,0.4,0.1,0.8,0.1,1.2
			c0,1.7-0.3,3.3-0.9,4.9c19,4.7,34,19.5,38.8,38.1c1.4-0.5,3-0.8,4.6-0.8c0.5,0,1,0,1.5,0.1C342.3,45.2,325.2,28.3,303.5,23.2z"/>
		<path class="st1" d="M276.3,137c-22-5-39.4-22-44.5-43.7c0.6,0.1,1.3,0.1,2,0.1c1.4,0,2.8-0.2,4.1-0.6c4.8,18.7,20,33.5,39.2,38.1
			c-0.6,1.4-0.8,3-0.8,4.8C276.2,136.1,276.2,136.6,276.3,137z M345.9,93.4c-1.6,0-3.1-0.3-4.6-0.8c-4.7,18.6-19.7,33.4-38.8,38.1
			c0.6,1.5,0.9,3.1,0.9,4.9c0,0.4,0,0.8-0.1,1.2c21.7-5.2,38.9-22.1,43.9-43.5C346.9,93.4,346.4,93.4,345.9,93.4z"/>
	</g>
</g>
</svg>
